<?xml version="1.0" encoding="utf-8" ?><svg xmlns="http://www.w3.org/2000/svg" xmlns:xlink="http://www.w3.org/1999/xlink" width="1024" height="1024" viewBox="0 0 1024 1024"><path fill="white" d="M0 0L1024 0L1024 1024L0 1024L0 0Z"/><defs><linearGradient id="gradient_0" gradientUnits="userSpaceOnUse" x1="506.37292" y1="872.50757" x2="516.88721" y2="355.84903"><stop offset="0" stop-color="#0E6481"/><stop offset="1" stop-color="#30A3A5"/></linearGradient></defs><path fill="url(#gradient_0)" d="M278.866 355.713C284.54 355.1 299.969 355.478 306.194 355.477L361.105 355.424C371.192 374.066 380.06 384.759 395.987 398.524L323.938 398.505C313.955 398.504 277.324 397.703 270.288 400.037C262.164 402.699 255.413 408.449 251.492 416.046C249.278 420.34 248.074 425.015 248.021 429.829C247.832 447.022 247.935 464.374 247.947 481.563L248.004 580.961L248.029 709.61L248.004 745.699C247.982 754.751 247.109 776.203 249.687 783.873C252.913 793.482 260.546 800.964 270.218 803.998C278.12 806.543 303.718 805.591 313.139 805.582L421.275 805.587L452.255 805.529C469.393 805.487 475.689 804.341 491.115 812.302L490.976 435.063C508.742 435.163 515.671 434.499 532.964 430.594L533.025 812.227C546.916 804.138 554.902 805.495 570.533 805.529L601.699 805.573L711.194 805.603C722.311 805.592 733.448 805.708 744.557 805.529C753.124 805.391 760.445 802.15 766.55 796.264C779.216 784.053 776.469 763.37 776.464 747.184L776.432 697.75L776.228 512.357L776.233 457.49C776.231 450.342 775.866 439.062 776.278 432.415C776.64 426.584 781.432 417.58 782.336 409.51C784.662 388.765 779.472 375.724 767.666 359.714C777.573 362.727 788.274 369.648 795.599 376.894C812.307 393.421 817.885 411.242 818.022 434.147L818.086 676.87L818.095 743.833C818.09 755.944 818.688 775.54 816.706 786.723C814.051 801.701 806.817 815.488 796 826.183C785.942 836.166 773.276 843.115 759.452 846.235C750.23 848.231 736.212 847.869 726.518 847.858L690.098 847.808L556.715 847.937C540.123 874.075 508.673 882.413 482.437 864.269C475.632 859.563 471.946 854.736 467.41 847.885C452.769 847.569 437.127 847.862 422.405 847.855L326.78 847.861L294.343 847.818C269.667 847.764 252.72 847.387 232.738 830.319C205.503 807.056 206.03 782.119 206.049 749.577L206.047 706.425L206.055 565.213L206.022 468.541C206.026 455.024 205.89 441.174 206.151 427.876C206.694 400.155 224.305 374.094 249.403 362.596C259.488 357.976 267.817 356.44 278.866 355.713Z"/><defs><linearGradient id="gradient_1" gradientUnits="userSpaceOnUse" x1="558.37317" y1="431.35193" x2="570.70941" y2="151.55141"><stop offset="0" stop-color="#2A9A9E"/><stop offset="1" stop-color="#3BBAB7"/></linearGradient></defs><path fill="url(#gradient_1)" d="M484.468 148.208C502.366 146.174 524.569 149.765 541.22 155.994C573.904 168.147 600.382 192.848 614.771 224.611C629.308 256.922 630.561 293.653 618.258 326.879C623.838 329.667 629.4 332.491 634.944 335.351L642.182 321.661C662.08 330.346 682.04 340.063 701.766 349.132C715.166 355.303 728.559 361.41 741.761 367.994C761.073 377.625 767.148 402.481 756.584 420.803C751.497 429.535 743.116 435.859 733.324 438.355C713.493 443.508 697.539 431.182 681.114 421.633L641.815 398.783C632.149 393.252 620.409 386.92 611.254 380.854C613.738 376.091 616.28 371.357 618.879 366.655L601.568 358.079C599.825 360.536 598.016 362.946 596.143 365.305C574.085 392.32 542.128 409.378 507.408 412.671C472.91 416.041 438.495 405.486 411.819 383.352C384.682 360.754 367.614 328.316 364.358 293.153C360.638 257.226 371.701 221.332 395.002 193.734C417.872 166.393 449.224 151.26 484.468 148.208Z"/><path fill="white" d="M486.5 193.075C534.658 188.328 577.518 223.586 582.145 271.756C586.771 319.925 551.406 362.697 503.225 367.203C455.214 371.693 412.626 336.48 408.016 288.48C403.406 240.481 438.512 197.805 486.5 193.075Z"/><path fill="#208795" d="M712.305 622.596L713.047 622.529C729.777 621.104 741.52 633.87 734.846 650.581C734.086 652.486 731.406 655.41 729.922 656.901C710.799 676.12 691.662 695.326 672.562 714.57L654.281 733.082C645.576 741.9 635.534 752.552 622.549 743.979C614.947 738.959 603.636 726.021 596.898 719.181C585.291 707.648 563.263 691.467 580.175 674.295C583.965 670.388 589.173 668.179 594.615 668.171C597.751 668.154 600.834 668.973 603.549 670.542C608.616 673.473 627.147 693.287 632.541 698.7C655.746 674.225 680.571 650.459 704.484 626.653C706.604 624.541 709.516 623.478 712.305 622.596Z"/><path fill="#208795" d="M591.221 458.128C598.495 457.699 608.81 457.962 616.336 457.953L662.864 457.917L697.743 457.905C706.494 457.905 721.816 456.626 728.906 461.71C733.282 464.841 736.149 469.66 736.811 474.999C738.367 487.207 730.642 496.209 718.725 497.853C693.78 498.526 665.925 497.939 640.814 497.942L609.164 497.936C601.758 497.931 587.801 498.958 581.834 494.963C577.106 491.783 573.921 486.773 573.05 481.142C570.99 468.61 579.216 459.86 591.221 458.128Z"/><path fill="#208795" d="M304.81 455.206C329.754 454.378 358.355 455.04 383.533 455.034L414.514 455.033C422.22 455.034 435.066 453.997 441.48 457.93C446.425 460.966 449.887 465.92 451.036 471.608C453.344 483.4 445.145 493.039 433.65 494.863C425.153 495.202 415.033 494.969 406.391 494.975L357.05 495.002L324.784 495.004C316.278 495.001 301.982 496.263 295.058 491.27C290.651 488.093 287.713 483.271 286.91 477.898C285.097 466.097 293.206 456.685 304.81 455.206Z"/><path fill="#208795" d="M303.555 602.089C310.746 601.7 319.851 601.941 327.168 601.93L370.105 601.868L409.067 601.829C416.265 601.826 435.667 600.845 441.31 604.416C456.545 614.057 454.124 636.752 435.033 641.484C427.218 641.833 417.794 641.619 409.826 641.631L363.612 641.693L327.492 641.775C320.14 641.791 303.032 642.699 297.13 639.42C292.486 636.841 289.083 632.492 287.697 627.363C284.271 615.169 291.437 604.718 303.555 602.089Z"/><path fill="#208795" d="M306.068 675.193C345.642 674.47 385.646 675.923 425.267 675.186C430.495 675.089 437.478 675.216 441.974 678.053C446.489 680.93 449.663 685.495 450.791 690.728C453.492 702.999 445.233 712.987 433.103 714.915C405.805 715.381 377.373 714.978 349.93 714.981L321.757 714.981C314.313 714.98 299.869 716.073 294.622 711.271C280.368 698.226 286.337 676.94 306.068 675.193Z"/><path fill="#208795" d="M302.292 529.104C310.863 528.679 320.666 528.907 329.312 528.903L371.692 528.809L409.888 528.757C417.48 528.754 434.638 527.859 440.752 530.934C445.251 533.173 448.661 537.126 450.215 541.905C454.089 553.611 447.657 564.165 436.268 567.908C432.791 568.725 424.108 568.502 420.206 568.506L392.704 568.517L337.72 568.538C330.663 568.538 303.912 569.25 299.087 567.157C293.924 564.86 289.918 560.56 287.993 555.247C283.607 543.284 290.669 532.738 302.292 529.104Z"/><path fill="#208795" d="M588.945 534.084C610.621 533.151 638.226 533.921 660.323 533.918L696.788 533.877C703.636 533.868 721.394 533.035 726.597 535.828C731.372 538.432 734.891 542.856 736.351 548.095C739.787 560.137 732.237 569.963 720.688 572.994C712.572 573.465 702.336 573.227 694.07 573.23L649.803 573.31L612.703 573.378C605.653 573.386 598.059 573.598 591.056 573.113C568.694 571.563 565.304 539.293 588.945 534.084Z"/></svg>