<?xml version="1.0" encoding="utf-8" ?><svg xmlns="http://www.w3.org/2000/svg" xmlns:xlink="http://www.w3.org/1999/xlink" width="1024" height="1024" viewBox="0 0 1024 1024"><defs><linearGradient id="gradient_0" gradientUnits="userSpaceOnUse" x1="512.77557" y1="872.50842" x2="510.81952" y2="355.14621"><stop offset="0" stop-color="#15637F"/><stop offset="1" stop-color="#369FA1"/></linearGradient></defs><path fill="url(#gradient_0)" d="M280.125 355.668C288.888 355.06 302.996 355.496 312.082 355.49C328.162 355.481 345.158 355.222 361.178 355.611C372.588 374.621 378.02 383.852 395.995 398.286L334.052 398.35C312.028 398.327 288.086 396.671 266.435 401.283C257.434 403.201 248.237 419.213 248.108 428.134C247.888 443.359 247.99 458.776 248.007 474.072L248.029 561.202L248.031 710.275L248.001 746.926C247.983 755.565 247.605 764.588 248.036 773.18C250.01 812.547 288.228 805.905 315.499 805.826L419.045 805.615C433.081 805.599 447.116 805.516 461.151 805.514C471.475 805.512 481.883 807.253 491.024 812.301C491.817 769.791 491.102 724.843 491.086 682.176L491.013 435.141C506.279 435.186 518.164 433.607 533.029 430.774L532.985 812.272C549.43 803.099 562.876 805.46 580.562 805.532C618.291 805.688 656.065 805.579 693.797 805.608L725.471 805.706C745.432 805.828 767.286 807.132 774.371 782.247C777.878 769.929 776.563 752.991 776.511 739.9L776.371 696.75L776.28 541.436L776.183 469.446C776.17 463.145 775.182 438.968 776.408 433.747C783.859 402.021 788.671 389.607 767.794 359.624C779.501 365.42 784.57 366.423 794.724 376.447C814.62 396.086 817.53 413.958 817.718 440.683C818.252 516.251 817.759 591.813 817.918 667.362L817.994 737.579C817.997 752.447 818.715 773.273 816.212 787.272C813.668 801.75 806.719 815.091 796.313 825.473C773.848 848.332 753.368 848.046 723.769 847.685C713.503 847.557 703.235 847.497 692.968 847.504L556.686 847.967C542.994 866.245 527.139 876.677 503.371 872.984C486.409 870.349 477.005 860.857 467.392 847.543C425.432 846.641 380.131 847.439 338.082 847.754L301.164 847.82C289.246 847.812 275.218 848.068 263.543 845.79C246.176 842.171 229.997 830.74 219.599 816.574C208.339 801.233 206.425 782.403 206.146 764.005C205.882 746.589 206.143 729.154 206.148 711.75L206.133 587.8L206.105 480.196C206.076 459.399 205.547 436.814 207.291 416.223C207.991 407.97 216.33 391.097 221.855 384.573C239.372 363.89 254.588 358.627 280.125 355.668Z"/><defs><linearGradient id="gradient_1" gradientUnits="userSpaceOnUse" x1="560.17572" y1="434.57083" x2="566.32068" y2="149.96431"><stop offset="0" stop-color="#30969B"/><stop offset="1" stop-color="#45B4B1"/></linearGradient></defs><path fill="url(#gradient_1)" d="M486.273 148.155C500.535 146.626 521.95 149.798 535.557 154.136C568.164 164.53 595.323 187.868 611.121 218.08C624.936 244.461 629.55 274.699 624.23 304C622.709 312.207 620.483 319.062 617.979 326.976C623.16 329.1 630.125 332.788 634.972 335.498C637.308 330.94 639.709 326.414 642.173 321.923C662.142 329.991 683.475 340.936 703.167 349.929C715.974 356.13 728.973 361.971 741.727 368.276C761.14 377.874 766.46 401.744 756.548 419.97C751.603 428.855 743.31 435.394 733.517 438.131C713.473 443.738 692.471 428.423 675.964 418.585C664.258 411.556 652.479 404.649 640.629 397.865C630.236 391.896 621.473 387.155 611.347 380.619C613.146 376.608 616.658 370.659 618.858 366.657C613.081 363.876 607.168 360.735 601.399 357.845C599.414 361.075 597.156 363.928 594.716 366.83C572.482 392.952 540.88 409.3 506.713 412.355C471.912 415.805 437.208 404.917 410.614 382.206C383.347 359.285 367.406 325.869 364.345 290.623C361.149 255.639 372.11 220.833 394.774 193.992C418.645 165.734 449.657 151.132 486.273 148.155ZM498.25 367.5C546.437 365.718 584.089 325.268 582.42 277.077C580.751 228.886 540.389 191.139 492.194 192.696C443.84 194.258 405.941 234.782 407.615 283.133C409.29 331.484 449.903 369.288 498.25 367.5Z"/><path fill="#23808F" d="M714.959 622.662C720.932 622.976 725.51 623.573 730.34 627.76C734.054 630.916 736.308 635.46 736.571 640.327C736.905 646.785 734.777 651.032 730.619 655.511C715.263 672.055 698.814 687.83 682.992 703.897L658.992 728.261C650.076 737.286 637.527 752.692 623.973 744.65C613.954 738.706 604.003 725.909 595.404 717.74C587.152 710.05 574.998 699.969 574.315 687.865C573.725 677.401 583.854 668.497 594.055 668.391C596.866 668.382 599.638 669.046 602.14 670.327C609.652 674.212 625.615 691.945 632.569 698.688C647.468 682.61 663.544 667.415 678.924 651.775C687.258 643.3 695.842 634.507 704.762 626.64C708.002 623.783 710.835 623.167 714.959 622.662Z"/><path fill="#23808F" d="M308.571 455.188C309.257 455.114 309.944 455.055 310.632 455.012C316.435 454.618 325.465 454.836 331.503 454.825L378.822 455.072L412.782 455.049C419.619 455.059 428.377 454.877 434.999 455.876C438.694 456.416 442.139 458.063 444.879 460.601C448.741 464.265 450.99 469.313 451.132 474.634C451.307 479.796 449.367 484.806 445.76 488.503C440.93 493.477 435.469 494.441 428.929 494.603C422.347 495.259 414.974 494.938 408.298 494.924L375.761 494.929L334.809 494.993C324.396 495.008 304.031 496.328 295.16 491.164C286.649 486.211 283.916 470.928 290.614 463.254C295.72 457.405 301.1 456.023 308.571 455.188Z"/><path fill="#23808F" d="M692.295 457.752C703.52 457.578 721.993 455.849 730.89 463.506C738.776 470.293 739.172 484.923 731.275 491.664C728.795 493.781 725.746 496.41 722.344 496.831C709.396 498.431 695.969 497.889 682.92 497.857L617.75 497.841C607.171 497.877 587.688 499.649 579.7 492.796C575.619 489.273 573.2 484.201 573.032 478.811C572.032 452.698 605.338 458.331 622.076 457.985C645.382 457.503 668.977 458.608 692.295 457.752Z"/><path fill="#23808F" d="M320.377 674.782C343.449 673.904 370.219 675.241 393.606 675.467C401.671 675.558 409.737 675.598 417.802 675.586C426.768 675.565 437.931 674.021 444.825 680.46C448.609 683.967 450.83 688.845 450.991 694.002C451.147 699.311 449.602 704.599 445.778 708.398C438.345 715.782 429.345 714.679 419.821 714.6C396.901 715.425 371.088 714.904 347.976 714.906C337.619 714.985 327.261 714.919 316.906 714.71C311.997 714.595 307.05 714.545 302.193 713.968C288.154 712.335 281.906 691.785 291.588 681.929C299.029 674.355 310.506 675.103 320.377 674.782Z"/><path fill="#23808F" d="M311.459 528.693C317.01 528.448 325.194 528.875 330.974 528.915C343.617 528.958 356.261 528.927 368.904 528.821L405.038 528.581C415.611 528.522 435.872 526.989 444.634 533.607C452.315 539.408 452.557 554.65 446.065 561.538C441.117 566.787 435.548 567.986 428.625 568.399C402.009 568.655 375.346 568.202 348.709 568.308C334.904 568.363 320.651 568.827 306.877 568.114C302.727 567.899 297.969 566.647 294.736 563.97C286.569 557.211 283.856 544.604 291.299 536.252C296.895 529.851 303.662 529.352 311.459 528.693Z"/><path fill="#23808F" d="M336.22 601.728C358.646 602.91 381.941 601.317 404.433 601.989C421.193 602.49 450.875 597.023 451.002 622.199C451.057 627.356 448.942 632.298 445.175 635.82C443.093 637.793 438.751 640.555 435.938 640.846C425.435 641.931 413.29 641.406 402.75 641.363L338.297 641.426C327.276 641.444 314.291 642.089 303.525 640.835C281.075 638.222 281.713 604.595 304.815 602.376C315.276 601.371 325.731 602.177 336.22 601.728Z"/><path fill="#23808F" d="M611.974 533.713L682.113 533.9C694.571 533.898 710.615 533.219 722.849 535.046C736.761 538.226 741.904 556.996 731.432 566.925C723.182 574.747 709.988 572.911 699.125 572.978L630.367 573.179C616.433 573.259 602.523 573.736 588.575 572.507C573.284 571.161 568.583 549.841 577.946 539.86C585.207 532.119 601.756 534.128 611.974 533.713Z"/></svg>